# xmcd
#
# Track frame offsets:
#	150
#	10260
#	17868
#	26886
#	37435
#	46576
#	54259
#	63832
#	71600
#	82311
#	90669
#	101885
#
# Disc length: 1475 seconds
#
# Revision: 1
# Processed by: cddbd v1.5.2PL0 Copyright (c) Steve Scherf et al.
# Submitted via: EasyCDDAExtractor 6.5.9.5
#
DISCID=a105c10c
DTITLE=Various Artist - He'll Have To Go
DYEAR=2006
DGENRE=
TTITLE0=Jim Reeves - He'll Have To Go
TTITLE1=Bimbo
TTITLE2=I'd Like To Be
TTITLE3=Peace In The Valley
TTITLE4=Billy Bayou
TTITLE5=In A Mansion Stands My Love
TTITLE6=I'm Getting Better
TTITLE7=I Know One
TTITLE8=I Missed Me
TTITLE9=Waiting For A Train
TTITLE10=Am I Losing You?
TTITLE11=According To My Heart
EXTD=
EXTT0=
EXTT1=
EXTT2=
EXTT3=
EXTT4=
EXTT5=
EXTT6=
EXTT7=
EXTT8=
EXTT9=
EXTT10=
EXTT11=
PLAYORDER=
